<svg width="29" height="30" viewBox="0 0 29 30" fill="none" xmlns="http://www.w3.org/2000/svg">
<path d="M14.5 30C16.7863 30 18.6409 28.3213 18.6409 26.25H10.3591C10.3591 28.3213 12.2137 30 14.5 30ZM28.4426 21.2279C27.192 20.0115 24.8519 18.1816 24.8519 12.1875C24.8519 7.63477 21.3253 3.99023 16.5701 3.09609V1.875C16.5701 0.839648 15.6432 0 14.5 0C13.3568 0 12.4299 0.839648 12.4299 1.875V3.09609C7.67466 3.99023 4.14807 7.63477 4.14807 12.1875C4.14807 18.1816 1.80801 20.0115 0.557387 21.2279C0.168995 21.6059 -0.00319184 22.0576 4.47549e-05 22.5C0.00716527 23.4609 0.840265 24.375 2.07794 24.375H26.9221C28.1597 24.375 28.9935 23.4609 29 22.5C29.0032 22.0576 28.831 21.6053 28.4426 21.2279Z" fill="#434141"/>
</svg>
